Patient4_TMGait_0pt4_01_right_11_EMG.mot
version=1
nRows=36
nColumns=33
inDegrees=no
endheader
time	1LAddLong	2LGlutMax	3LGlutMed	4LIliopsoas	5LSemiMemb	6LBicFemLong	7LRecFem	8LVastMed	9LVastLat	10LGasMed	11LTibAnt	12lTibPost	13LPeroneusLong	14LSol	15LExtDigLong	16LFlexDigLong	17RAddLong	18RGlutMax	19RGlutMed	20RIliopsoas	21RSemiMemb	22RBicFemLong	23RRecFem	24RVastMed	25RVastLat	26RGasMed	27RTibAnt	28RTibPost	29RPeroneusLong	30RSol	31RExtDigLong	32RFlexDigLong
15.373	0.001373	0.020142	-0.0914	-0.001526	0.013275	-0.007019	0.032349	0.009003	0.022888	-0.077515	0.0383	0.001678	0.29694	0.19638	-0.44052	0.030975	0.010223	-0.020294	-0.029144	-0.002136	-0.035706	-0.013733	0.024719	-0.026093	0.000305	-0.005341	-0.054169	0.00412	0.17349	-0.051117	-0.001068	-0.016937
15.374	-0.00946	0.062714	0.12741	-0.00473	0.015869	-0.007477	0.081329	0.006256	0.023346	-0.048828	0.014496	0.002899	0.10346	0.15335	0.17151	0.028229	0.007324	0.047302	0.11673	-0.064392	-0.0177	-0.043335	0.042572	0.001526	-0.003204	-0.00946	-0.13626	0.013275	0.29297	-0.028076	0.000153	-0.014801
15.375	-0.003662	0.021515	0.18921	-0.016937	0.017395	-0.01236	0.027161	0.008392	0.068359	-0.014343	-0.006866	0.003052	-0.077972	0.10407	0.085754	-0.006256	0.007172	0.042267	0.26688	-0.086365	-0.015564	-0.065613	0.026093	-0.021667	-0.00473	-0.007782	-0.048981	0.013885	0.14221	-0.032959	-0.001221	0.001373
15.376	0.001984	-0.007019	0.18585	-0.016937	0.017548	-0.014038	-0.000458	0.00351	0.06424	-0.017395	-0.050812	-0.001221	-0.014648	-0.007019	-0.054321	-0.016174	-0.014191	0.028076	0.33478	-0.059662	0.002747	-0.064697	0.076904	-0.028992	0.001678	-0.011749	-0.052185	0.008698	-0.29434	-0.019531	-0.002747	-0.004272
15.377	-0.047302	0.014954	0.11429	-0.006104	0.014191	-0.005951	0.039215	-0.011292	0.046082	-0.054626	0.032959	0.000305	-0.030365	-0.019379	-0.19989	0.013885	-0.008087	0.047302	-0.12161	0.007935	0.037537	-0.055237	0.038605	-0.007172	0.006104	-0.019531	-0.13702	0.019836	-0.069885	0.028839	-0.002441	0.000763
15.378	0.058746	0.038147	0.074005	-0.029602	0.003967	0.002594	0.048523	0.002899	0.022888	-0.067444	0.13763	0.003204	0.19928	0.042725	-0.25375	-0.003815	0.003357	0.042877	-0.23834	-0.12482	-0.007477	-0.062866	-0.012817	-0.025787	-0.000763	-0.014038	-0.072632	0.007935	0.043945	0.048828	-0.003662	-0.000916
15.379	0.044098	0.008087	0.047302	0.00946	0.01236	-0.003357	0.05722	0.00351	0.024414	-0.019836	0.21851	-0.001068	0.088196	0.011292	-0.36072	-0.012665	0.006561	0.067596	-0.30365	-0.14343	-0.040741	-0.037994	-0.067596	-0.023804	0.007019	-0.011749	0.19653	0.01358	0.002441	0.006104	-0.00473	0.004578
15.38	-0.021667	0.023956	-0.014038	0.010529	0.018311	-0.006561	0.038605	-0.00061	0.029907	-0.041199	0.051575	-0.002289	-0.31204	0.034485	-0.21896	-0.003357	-0.008392	0.091858	-0.4567	-0.10956	-0.021667	-0.012054	-0.10925	-0.068817	0.028381	-0.00061	0.12466	0.009003	0.085449	-0.026245	-0.003967	0.007172
15.381	-0.007477	0.045776	0.021515	0.003052	0.019836	-0.00412	0.048218	0.001831	0.023499	-0.074615	-0.11505	0.003815	-0.4071	0.20477	0.010529	-0.016174	-0.015717	0.10361	-0.12024	-0.015106	0.016785	0.011292	-0.046997	-0.031891	0.004578	-0.000916	-0.38101	0.005341	0.094147	-0.030823	-0.004578	0.014038
15.382	0.003815	0.053253	-0.027618	0.005493	0.021667	-0.005341	0.041199	0.006409	0.046844	-0.054169	0.008392	-0.00412	-0.37628	-0.016937	0.072327	0.011292	-0.010376	0.060577	0.16098	0.21179	0.045319	0.036926	-0.018768	-0.027618	0.018768	0.002289	-0.65094	0.011444	0.11719	-0.054626	-0.005188	0.019836
15.383	-0.00351	0.041656	0.14786	-0.001373	0.012665	0.003815	0.048981	-0.000916	0.038605	-0.022583	0.049896	0.00412	0.32105	-0.20721	0.10635	0.000305	-0.011597	0.040588	0.21927	0.21942	0.024109	0.025635	-0.017548	-0.010223	0.02655	0	-0.41122	0.016327	0.099945	-0.10346	-0.004425	0.012665
15.384	-0.008087	0.042114	0.048676	0.023804	0.018311	-0.023193	0.058899	-0.005188	0.024414	-0.036774	-0.13596	-0.001984	0.34943	-0.095825	0.17593	0.007477	-0.007629	0.060425	0.052185	0.088196	0.014648	-0.000458	0.011902	0.005646	0.009918	0.000763	0.13504	0.007629	0.02533	-0.069427	0.000305	0.008392
15.385	-0.016327	0.022125	0.070648	-0.00885	0.006256	-0.01358	0.05661	0.001221	0.011444	-0.053711	-0.050049	-0.005188	0.36789	-0.018768	0.14877	0.002289	0.005035	0.048523	0.14923	0.14404	0.009155	-0.052643	-0.02121	-0.031281	-0.00061	0.001221	0.23758	0.011597	0.019989	-0.000458	-0.003052	0.008392
15.386	0.045929	0.011597	0.005951	0.007324	-0.001373	-0.016632	0.054626	-0.002594	-0.006866	-0.041962	-0.043182	0.002441	-0.014496	-0.092926	0.026093	-0.002441	0.022125	0.049133	0.080109	0.27679	-0.001831	-0.14435	-0.038605	-0.064087	0.004883	-0.002899	0.24139	0.013123	0.003967	0.02533	-0.002441	0.004272
15.387	-0.074768	0.019989	0.018616	0.006714	-0.023499	-0.007477	0.10452	0.006104	-0.066528	-0.058746	-0.03067	0.00885	-0.13275	-0.085907	0.045166	-0.011292	0.055389	-0.015411	-0.16113	0.048218	0.023956	-0.12085	-0.028992	-0.065918	0.005646	-0.007172	0.39459	0.010986	-0.12314	0.084686	-0.003204	-0.001526
15.388	-0.059967	0.057831	0.063782	0.016632	-0.054016	0.036011	0.095825	0.003815	-0.061951	-0.028839	0.063934	0.001526	0.040894	-0.073242	0.041656	0.007172	0.061493	0.033722	-0.21255	-0.2475	0.016479	-0.042267	0.006561	-0.067291	-0.013275	-0.007172	0.36392	0.012665	-0.049744	0.045624	-0.001221	0.00061
15.389	-0.007782	0.035095	-0.015106	0.019836	-0.059204	0.065918	0.076141	0.007019	-0.043945	-0.022583	0.064697	0.009308	-0.38666	-0.093994	-0.007782	0.001373	0.056152	-0.02243	-0.015259	-0.14572	0.015717	0.035095	-0.020294	-0.07019	0.003815	-0.005188	-0.054474	0.015411	0.060577	0.0354	-0.003662	-0.000153
15.39	-0.002289	0.047607	0.014191	0.002441	-0.024109	-0.001678	0.067749	0.006256	-0.052795	-0.093384	-0.000153	0.003357	-0.22598	-0.057983	0.02243	0.00946	0.00946	-0.033112	0.019379	0.067444	-0.033569	0.14893	-0.018158	0.000153	0.005188	-0.001984	-0.37994	0.006714	-0.026245	0.08316	-0.000305	0.001373
15.391	0.003967	0.072937	0.032043	-0.018158	0.027161	-0.08728	0.029907	0.004578	-0.020905	-0.12299	-0.10635	0.005341	0.069885	0.056152	-0.003967	-0.008087	-0.016174	0.000305	0.10803	0.15503	-0.08728	0.13092	-0.014801	0.027008	0.009003	-0.001831	-0.023804	0.014191	-0.15701	0.024109	0.003052	-0.000916
15.392	0.005188	0.080261	0.021057	-0.022736	0.049133	-0.085297	0.014801	0.009918	0.13641	-0.005493	0.012207	-0.002594	0.20172	0.019531	0.28702	0.007477	-0.031891	0.026855	0.002747	0.1033	-0.17929	0.19898	-0.060425	0.047302	0.028076	-0.003204	0.22736	0.013733	-0.10315	0.036163	-0.003662	0.000916
15.393	0.009003	0.12161	0.000153	-0.009766	0.039825	-0.009613	-0.016479	0.012512	0.10468	0.056305	0.10117	-0.006104	0.25055	-0.034027	0.10376	0.012207	-0.046539	0.016785	0.075684	0.027618	-0.000305	0.20813	-0.030212	0.022888	0.015717	-0.002441	0.18524	0.010681	0.40176	0.014191	-0.004272	-0.004883
15.394	0.016937	0.12802	-0.027771	0.004578	0.029755	0.029144	0.006104	0.016174	0.030518	0.065918	0.046997	0.008392	0.14999	-0.028381	0.09079	0.004425	-0.042114	0.027161	-0.10239	0.033112	0.035858	0.15015	-0.036316	0.041046	0.01358	-0.000763	0.046387	0.007172	-0.15457	0.017548	-0.004425	-0.004883
15.395	0.014343	0.076141	-0.026703	0.02121	0.054474	-0.007782	-0.008545	0.017548	0.030975	0.029907	-0.10101	0.006561	0.10269	-0.032806	0.050354	0.016174	-0.012665	-0.01709	-0.061798	0.001221	0.021667	0.12985	-0.066833	0.033112	0.004425	-0.000305	-0.21072	0.01358	-0.18036	0.035095	-0.001678	-0.022125
15.396	0.019836	0.072784	-0.045776	0	0.036163	-0.016632	-0.007477	0.01236	0.099335	0.025177	-0.14801	0.007629	-0.18448	-0.061035	-0.006409	0.014801	-0.005188	0.01297	0.47974	-0.041504	0.018768	0.093994	-0.018005	-0.006561	0.009766	-0.00351	-0.15121	0.011444	0.18005	0.057678	-0.003815	-0.043945
15.397	0.009155	0.07843	-0.081329	-0.009308	0.027313	-0.003204	0.018616	0.003967	0.14404	0.074768	-0.038757	0.000458	-0.33829	-0.23651	0.028687	0.012512	0.009155	-0.077209	0.55771	-0.11185	-0.087585	0.10346	0.016937	-0.023956	-0.004883	-0.008392	-0.043945	0.00351	0.25101	0.05249	-0.007019	-0.058289
15.398	0.007324	0.097351	0.003204	-0.010529	0.018921	0.016785	0.000763	-0.012817	0.13077	0.070038	0.05249	-0.00061	-0.055389	-0.18402	-0.081635	0.00885	0.022736	-0.055847	0.051727	-0.10391	-0.21149	0.13077	-0.007782	-0.058746	0.01358	-0.002136	-0.024109	0.008087	0.20844	0.00473	-0.002594	-0.066376
15.399	-0.004425	0.088043	0.081329	0.012054	0.002747	0.039673	0.1001	-0.017242	0.075836	0.037689	0.015259	0.001984	0.53772	0.022888	-0.34744	0.005798	0.016479	0.02533	0.080109	-0.14435	-0.33005	0.21698	-0.02594	-0.038452	0.007629	-0.004425	-0.018921	0.003967	0.20538	0.014648	-0.004578	-0.081177
15.4	-0.000153	0.076904	0.09491	0.017242	0.00824	0.021057	0.10666	-0.007172	-0.06485	0.031433	0.04425	0.005951	0.42023	0.050812	-0.19577	-0.080872	0.00885	-0.006866	0.2507	-0.11063	-0.17761	0.27298	0.006714	-0.024109	0.010986	-0.006104	-0.030365	0.011597	0.052185	0.019989	-0.00412	-0.088043
15.401	-0.003204	0.078278	-0.033112	0.001678	0.016022	-0.021362	0.11322	-0.007019	-0.042114	0.007782	0.18784	0.001831	0.27359	0.064087	0.14923	0.006256	0.010834	0.031891	0.19623	-0.015869	0.22385	0.31052	-0.005035	-0.002289	0.019836	-0.011139	-0.087738	0.007172	-0.016479	0.044403	-0.001221	-0.089417
15.402	0.002441	0.03891	-0.089569	-0.00351	0.041504	-0.025177	0.13779	-0.010223	-0.039673	-0.038757	0.010223	0.01236	0.13534	-0.030975	0.39978	-0.007629	0.019836	-0.027618	0.020142	-0.016785	0.095673	0.29221	-0.02121	0.004272	0.008087	-0.010681	-0.12573	0.007324	0.041504	0.056458	-0.004578	-0.078278
15.403	0.006866	0.052032	-0.083618	-0.001068	0.040283	-0.041962	0.1297	-0.002136	-0.00473	-0.04303	-0.21316	0.013123	-0.18616	-0.11093	0.27069	-0.005341	0.045471	-0.027466	0.03479	0.006561	-0.024719	0.20355	-0.000916	-0.021973	0.004425	-0.003357	-0.10925	0.004883	0.044708	0	0.005341	-0.089874
15.404	-0.000916	0.04776	0.037537	0.008392	0.021515	-0.035553	0.084381	0.007782	0.024261	-0.058136	-0.039368	0.008087	-0.039978	-0.059052	0.21606	-0.006409	0.064545	-0.039368	-0.054169	0.0914	0.090485	0.15549	0.001984	-0.016632	0.016174	0.000305	-0.009918	0.006104	-0.22003	-0.040131	0.001068	-0.081329
15.405	0.001984	0.037079	0.077667	-0.005341	0.017395	-0.030518	0.097656	0.000305	0.04303	-0.059814	-0.045776	0.001831	0.16205	0.016632	0.17334	0.001678	0.037994	-0.020142	0.021667	0.1091	0.035858	0.18051	-0.016479	-0.03067	0.023346	-0.001678	0.06546	0.005493	-0.37857	-0.045776	0	-0.068054
15.406	-0.00351	0.018616	-0.088348	-0.008087	0.018921	-0.060425	0.13534	0.001526	0.054932	-0.061646	-0.034485	0.000153	-0.3038	0.14343	0.013275	-0.004578	-0.022583	0.005341	-0.082855	0.039673	-0.039825	0.24887	-0.052338	0.043793	0.037079	0.000153	0.17014	0.006866	-0.4808	-0.033112	-0.008392	-0.052948
15.407	0.005035	-0.007172	-0.15259	0.00473	0.013428	-0.089417	0.12665	-0.001526	-0.00824	-0.019684	-0.11093	0.009766	-0.63034	0.1265	-0.1265	0.000153	-0.060883	-0.062408	-0.082245	-0.009155	0.20371	0.35355	-0.050201	0.13321	0.045319	-0.000458	0.22644	0.002594	-0.13229	-0.004272	-0.004425	-0.036926
15.408	0.001373	-0.00885	-0.079193	0.001373	0.025482	-0.066986	0.13092	0.002441	-0.072937	-0.040741	-0.1857	0.001221	-0.15671	0.10407	-0.3093	0.005341	-0.032196	-0.024567	-0.054626	-0.036163	0.22812	0.28168	-0.037994	0.074463	0.0383	-0.00061	0.13687	0.004425	0.62531	0.061188	-0.000153	-0.024414
